Coordinates
version=1
nRows=8
nColumns=34
inDegrees=yes

Units are S.I. units (second, meters, Newtons, ...)
If the header above contains a line with 'inDegrees', this indicates whether rotational values are in degrees (yes) or radians (no).

endheader
time	pelvis_tilt	pelvis_list	pelvis_rotation	pelvis_tx	pelvis_ty	pelvis_tz	hip_flexion_r	hip_adduction_r	hip_rotation_r	knee_angle_r	ankle_angle_r	subtalar_angle_r	mtp_angle_r	hip_flexion_l	hip_adduction_l	hip_rotation_l	knee_angle_l	ankle_angle_l	subtalar_angle_l	mtp_angle_l	lumbar_extension	lumbar_bending	lumbar_rotation	arm_flex_r	arm_add_r	arm_rot_r	elbow_flex_r	pro_sup_r	arm_flex_l	arm_add_l	arm_rot_l	elbow_flex_l	pro_sup_l
      0.00000000	      3.70825399	     -2.14999114	      3.49210295	      0.88086893	      0.93314874	     -0.07309393	     -2.87160488	     -0.95762218	    -10.63157918	      1.17874670	      2.83265778	     -8.39229058	      0.00000000	     -0.71645496	     -6.79201145	     -7.02607828	      2.84666887	      5.90604688	     -5.56234564	      0.00000000	     -7.57458902	      3.56465424	     -2.83452511	      9.73606361	     -9.13238473	     21.76391745	     26.14686484	     81.04081185	      9.40762868	     -7.27829969	     17.11126982	     26.92578845	     71.60931609
      0.01666670	      2.48855999	     -1.13821029	      3.21295711	      0.88361946	      0.93089386	     -0.07267622	     -1.74993570	     -1.66981897	    -11.66746769	      0.58402857	      5.33232923	     -5.77799508	      0.00000000	      0.22786514	     -5.39278485	     -9.73253918	      2.52480180	      6.96011719	     -3.43978634	      0.00000000	     -5.11925275	      2.45309367	     -2.65136325	      8.89880922	     -8.29001739	     18.85464464	     25.11558700	     80.52876391	      9.06954094	     -6.73689141	     15.00851729	     25.82164565	     71.38982956
      0.03333330	      1.30634118	     -0.16075410	      2.56845031	      0.88373148	      0.92922637	     -0.07142326	     -0.69247689	     -2.51366837	    -12.84529908	      0.00000000	      5.55360531	     -4.51730476	      0.00000000	      1.25668721	     -4.30042800	    -11.55419004	      2.41044566	      6.94634503	     -2.34664941	      0.00000000	     -3.63054678	      1.09755467	     -1.96320341	      8.43035772	     -7.49107862	     16.97107677	     25.01437148	     80.51181096	      9.03176921	     -6.88586234	     14.04072375	     25.49217160	     71.17925284
      0.05000000	      1.64266792	      0.38927128	      2.19154269	      0.88487886	      0.93305132	     -0.07143715	     -1.05865319	     -3.16785558	    -13.61444638	      0.00000000	      6.07487846	     -3.18693783	      0.00000000	      0.28610131	     -3.63050548	    -12.70373148	      1.34121850	      6.21874592	     -1.69942397	      0.00000000	     -3.97023039	      0.53869005	     -1.30763421	      8.16163966	     -7.37483319	     15.87456989	     24.88939371	     80.52262837	      9.08341891	     -6.92767882	     13.70987469	     25.35905361	     71.04688411
      0.06666670	      1.56976643	      0.62063498	      2.13999522	      0.88507881	      0.93310523	     -0.07133705	     -1.02927019	     -3.40829366	    -13.99336012	      0.00000000	      5.93415421	     -2.76217384	      0.00000000	      0.00316814	     -3.29923709	    -13.04281718	      0.63723293	      5.75442415	     -1.37411068	      0.00000000	     -3.83355664	      0.36537532	     -1.20852864	      7.95431141	     -7.32555458	     15.67547614	     25.02195056	     80.51297397	      8.96034003	     -7.02383925	     13.69558738	     25.24462734	     71.00822531
      0.08333330	      1.56819887	      0.63539129	      2.14147558	      0.88339920	      0.93397408	     -0.07107123	     -1.06589808	     -3.37961875	    -13.99641261	      0.00000000	      5.93187241	     -2.75540845	      0.00000000	      0.04062889	     -3.26450669	    -13.05387715	      0.61363234	      5.74814034	     -1.37319885	      0.00000000	     -3.83222201	      0.37128165	     -1.20066011	      7.95869863	     -7.32666986	     15.67413638	     25.02479492	     80.51256208	      8.95993481	     -7.02807271	     13.69477324	     25.24281450	     71.00759336
      0.10000000	      1.57010834	      0.68305351	      2.31757790	      0.88509249	      0.93246304	     -0.07007848	     -1.11978605	     -3.40371485	    -14.01367196	      0.00000000	      5.90204234	     -2.69785266	      0.00000000	      0.04670824	     -3.22406142	    -13.18577898	      0.54119471	      5.65053249	     -1.37349939	      0.00000000	     -3.84971162	      0.39595673	     -1.11949260	      7.99186657	     -7.30861724	     15.67515531	     25.05290451	     80.50933414	      8.93584535	     -7.06308460	     13.68829689	     25.21801897	     71.00178120
      0.11666670	      1.97630340	      0.86381016	      2.06539934	      0.88302858	      0.93284722	     -0.07025142	     -1.53865354	     -3.57985010	    -14.48944790	      0.00000000	      5.92734717	     -1.40183058	      0.00000000	     -0.65247066	     -2.97235554	    -14.11440402	      0.00000000	      4.24757645	     -0.80255283	      0.00000000	     -4.35429629	      0.23479796	     -0.74202456	      7.84314978	     -7.37713642	     15.79066085	     25.44330217	     80.40023203	      9.23360416	     -7.01809068	     13.67294147	     24.92770098	     70.84988137
